/* XPM */
static char * C:\Users\aoualp\Desktop\Shared VM folder\cmd build\cmd_master_10k\share\pixmaps\bitcoin16_xpm[] = {
"16 16 188 2",
"  	c None",
". 	c #000000",
"+ 	c #1DA3D7",
"@ 	c #272727",
"# 	c #3D3D3D",
"$ 	c #8ED1EB",
"% 	c #56BAE1",
"& 	c #151515",
"* 	c #F1F9FC",
"= 	c #C6E8F5",
"- 	c #2BA9DA",
"; 	c #E3F3FA",
"> 	c #72C6E6",
", 	c #AADCF0",
"' 	c #48B4DF",
") 	c #2E2E2E",
"! 	c #030303",
"~ 	c #D4EEF7",
"{ 	c #39AFDC",
"] 	c #010101",
"^ 	c #64C0E4",
"/ 	c #B8E2F2",
"( 	c #9CD7ED",
"_ 	c #80CBE9",
": 	c #282828",
"< 	c #060606",
"[ 	c #020202",
"} 	c #080808",
"| 	c #040404",
"1 	c #0E0E0E",
"2 	c #929292",
"3 	c #0B0B0B",
"4 	c #EEEEEE",
"5 	c #050505",
"6 	c #8B8B8B",
"7 	c #111111",
"8 	c #070707",
"9 	c #090909",
"0 	c #0A0A0A",
"a 	c #0F0F0F",
"b 	c #0C0C0C",
"c 	c #141414",
"d 	c #1F1F1F",
"e 	c #222222",
"f 	c #939393",
"g 	c #1E1E1E",
"h 	c #171717",
"i 	c #9A9A9A",
"j 	c #0D0D0D",
"k 	c #1D1D1D",
"l 	c #1A1A1A",
"m 	c #1C1C1C",
"n 	c #2A2A2A",
"o 	c #656565",
"p 	c #191919",
"q 	c #292929",
"r 	c #131313",
"s 	c #252525",
"t 	c #242424",
"u 	c #202020",
"v 	c #101010",
"w 	c #181818",
"x 	c #1B1B1B",
"y 	c #A1A1A1",
"z 	c #303030",
"A 	c #161616",
"B 	c #121212",
"C 	c #262626",
"D 	c #6E6E6E",
"E 	c #232323",
"F 	c #212121",
"G 	c #838383",
"H 	c #2B2B2B",
"I 	c #2C2C2C",
"J 	c #313131",
"K 	c #8D8D8D",
"L 	c #8E8E8E",
"M 	c #888888",
"N 	c #2F2F2F",
"O 	c #3E3E3E",
"P 	c #3A3A3A",
"Q 	c #858585",
"R 	c #2D2D2D",
"S 	c #808080",
"T 	c #8F8F8F",
"U 	c #323232",
"V 	c #8A8A8A",
"W 	c #878787",
"X 	c #868686",
"Y 	c #777777",
"Z 	c #F5F5F5",
"` 	c #424242",
" .	c #F3F3F3",
"..	c #828282",
"+.	c #898989",
"@.	c #3C3C3C",
"#.	c #979797",
"$.	c #909090",
"%.	c #383838",
"&.	c #949494",
"*.	c #3F3F3F",
"=.	c #333333",
"-.	c #464646",
";.	c #343434",
">.	c #393939",
",.	c #919191",
"'.	c #F4F4F4",
").	c #8C8C8C",
"!.	c #848484",
"~.	c #5D5D5D",
"{.	c #414141",
"].	c #353535",
"^.	c #474747",
"/.	c #3B3B3B",
"(.	c #373737",
"_.	c #EBEBEB",
":.	c #989898",
"<.	c #7F7F7F",
"[.	c #A2A2A2",
"}.	c #484848",
"|.	c #494949",
"1.	c #363636",
"2.	c #999999",
"3.	c #F1F1F1",
"4.	c #434343",
"5.	c #F0F0F0",
"6.	c #797979",
"7.	c #E9E9E9",
"8.	c #606060",
"9.	c #959595",
"0.	c #E2E2E2",
"a.	c #444444",
"b.	c #E0E0E0",
"c.	c #DEDEDE",
"d.	c #4E4E4E",
"e.	c #505050",
"f.	c #6F6F6F",
"g.	c #696969",
"h.	c #404040",
"i.	c #4D4D4D",
"j.	c #9F9F9F",
"k.	c #EAEAEA",
"l.	c #969696",
"m.	c #818181",
"n.	c #6D6D6D",
"o.	c #454545",
"p.	c #6C6C6C",
"q.	c #E1E1E1",
"r.	c #A7A7A7",
"s.	c #7D7D7D",
"t.	c #E3E3E3",
"u.	c #FBFBFB",
"v.	c #4C4C4C",
"w.	c #D9D9D9",
"x.	c #707070",
"y.	c #A6A6A6",
"z.	c #D4D4D4",
"A.	c #DBDBDB",
"B.	c #535353",
"C.	c #DADADA",
"D.	c #5F5F5F",
"E.	c #4F4F4F",
"F.	c #9E9E9E",
"G.	c #F2F2F2",
"H.	c #BABABA",
"I.	c #EFEFEF",
"J.	c #9B9B9B",
"K.	c #545454",
"L.	c #B0B0B0",
"M.	c #595959",
"N.	c #DFDFDF",
"O.	c #E7E7E7",
"P.	c #BFBFBF",
"Q.	c #E8E8E8",
"R.	c #555555",
"S.	c #727272",
"T.	c #FCFCFC",
"U.	c #636363",
"V.	c #666666",
"W.	c #D8D8D8",
"X.	c #DCDCDC",
"Y.	c #DDDDDD",
"Z.	c #C1C1C1",
"`.	c #757575",
" +	c #767676",
".+	c #9D9D9D",
"++	c #A5A5A5",
"@+	c #FFFFFF",
"  0 a ] l 8 . . . . . r r ] c   ",
". ] [ [ [ [ [ [ [ [ [ [ [ [ ] | ",
"B ]                         . 8 ",
". ]                         . ] ",
"r ]                         . ! ",
"A ]                       - . [ ",
"B | - - - - - - - -   - { - . [ ",
"h : -     -   -   - -     - . ! ",
"[ ] - - - -   -   -   - - { . ! ",
"5 ]                         . [ ",
"1 [ 9 9 9 9 9 9 9 9 9 9 9 9 [ 8 ",
"[ . . . . . . . . . . . . . . ] ",
"              | |               ",
"              . .               ",
"        ] | . . . . . ]         ",
"          3 } 7 8 B b           "};
